<?xml version="1.0" encoding="UTF-8" standalone="no"?>
<svg xmlns:svg="http://www.w3.org/2000/svg" xmlns="http://www.w3.org/2000/svg" version="1.1" width="360" height="185">
    <!-- Created with the Wikimedia parliament diagram creator (http://parliamentdiagram.toolforge.org/parliamentinputform.html) -->
    <g>
        <text x="180" y="175" style="font-size:36px;font-weight:bold;text-align:center;text-anchor:middle;font-family:sans-serif">348</text>
        <g style="fill:#DD0000; stroke-width:0.00; stroke:#000000" id="0_Party-1"> 
            <title>Party 1</title>            <circle cx="10.05" cy="176.00" r="4.00"/> 
            <circle cx="20.05" cy="176.00" r="4.00"/> 
            <circle cx="30.05" cy="176.00" r="4.00"/> 
            <circle cx="40.06" cy="176.00" r="4.00"/> 
            <circle cx="50.06" cy="176.00" r="4.00"/> 
            <circle cx="60.07" cy="176.00" r="4.00"/> 
            <circle cx="70.07" cy="176.00" r="4.00"/> 
            <circle cx="80.08" cy="176.00" r="4.00"/> 
            <circle cx="90.09" cy="176.00" r="4.00"/> 
            <circle cx="100.10" cy="176.00" r="4.00"/> 
            <circle cx="10.68" cy="164.83" r="4.00"/> 
            <circle cx="20.73" cy="164.78" r="4.00"/> 
            <circle cx="30.78" cy="164.73" r="4.00"/> 
            <circle cx="40.84" cy="164.67" r="4.00"/> 
            <circle cx="50.92" cy="164.60" r="4.00"/> 
            <circle cx="61.00" cy="164.51" r="4.00"/> 
            <circle cx="71.11" cy="164.41" r="4.00"/> 
            <circle cx="81.17" cy="164.72" r="4.00"/> 
        </g>
        <g style="fill:#00C000; stroke-width:0.00; stroke:#000000" id="1_Party-2"> 
            <title>Party 2</title>            <circle cx="12.04" cy="153.72" r="4.00"/> 
            <circle cx="22.19" cy="153.64" r="4.00"/> 
            <circle cx="91.32" cy="164.63" r="4.00"/> 
            <circle cx="32.35" cy="153.54" r="4.00"/> 
            <circle cx="42.54" cy="153.44" r="4.00"/> 
            <circle cx="101.51" cy="164.51" r="4.00"/> 
            <circle cx="52.77" cy="153.31" r="4.00"/> 
            <circle cx="14.14" cy="142.73" r="4.00"/> 
            <circle cx="63.04" cy="153.17" r="4.00"/> 
            <circle cx="24.43" cy="142.62" r="4.00"/> 
            <circle cx="73.37" cy="153.00" r="4.00"/> 
            <circle cx="34.76" cy="142.51" r="4.00"/> 
            <circle cx="83.54" cy="153.64" r="4.00"/> 
            <circle cx="45.15" cy="142.38" r="4.00"/> 
            <circle cx="16.95" cy="131.89" r="4.00"/> 
            <circle cx="55.61" cy="142.23" r="4.00"/> 
            <circle cx="93.99" cy="153.50" r="4.00"/> 
        </g>
        <g style="fill:#FF8080; stroke-width:0.00; stroke:#000000" id="2_Party-3"> 
            <title>Party 3</title>            <circle cx="27.44" cy="131.79" r="4.00"/> 
            <circle cx="66.15" cy="142.07" r="4.00"/> 
            <circle cx="37.99" cy="131.68" r="4.00"/> 
            <circle cx="104.57" cy="153.35" r="4.00"/> 
            <circle cx="20.47" cy="121.27" r="4.00"/> 
            <circle cx="48.64" cy="131.57" r="4.00"/> 
            <circle cx="76.81" cy="141.89" r="4.00"/> 
            <circle cx="31.20" cy="121.20" r="4.00"/> 
            <circle cx="87.14" cy="142.89" r="4.00"/> 
            <circle cx="59.41" cy="131.45" r="4.00"/> 
            <circle cx="42.03" cy="121.13" r="4.00"/> 
            <circle cx="70.32" cy="131.32" r="4.00"/> 
            <circle cx="24.68" cy="110.90" r="4.00"/> 
            <circle cx="98.04" cy="142.81" r="4.00"/> 
            <circle cx="53.00" cy="121.08" r="4.00"/> 
            <circle cx="35.69" cy="110.90" r="4.00"/> 
            <circle cx="81.42" cy="131.20" r="4.00"/> 
            <circle cx="64.14" cy="121.04" r="4.00"/> 
            <circle cx="46.85" cy="110.92" r="4.00"/> 
            <circle cx="29.56" cy="100.83" r="4.00"/> 
            <circle cx="109.21" cy="142.74" r="4.00"/> 
            <circle cx="91.93" cy="132.62" r="4.00"/> 
            <circle cx="75.49" cy="121.02" r="4.00"/> 
            <circle cx="58.20" cy="110.97" r="4.00"/> 
            <circle cx="40.90" cy="100.94" r="4.00"/> 
            <circle cx="35.09" cy="91.11" r="4.00"/> 
            <circle cx="103.42" cy="132.71" r="4.00"/> 
            <circle cx="52.43" cy="101.10" r="4.00"/> 
            <circle cx="69.77" cy="111.08" r="4.00"/> 
            <circle cx="87.12" cy="121.06" r="4.00"/> 
            <circle cx="46.79" cy="91.37" r="4.00"/> 
            <circle cx="64.20" cy="101.33" r="4.00"/> 
            <circle cx="97.86" cy="122.96" r="4.00"/> 
            <circle cx="81.63" cy="111.27" r="4.00"/> 
            <circle cx="41.26" cy="81.76" r="4.00"/> 
            <circle cx="58.73" cy="91.72" r="4.00"/> 
            <circle cx="115.33" cy="132.91" r="4.00"/> 
            <circle cx="76.26" cy="101.66" r="4.00"/> 
            <circle cx="53.34" cy="82.23" r="4.00"/> 
            <circle cx="93.87" cy="111.58" r="4.00"/> 
            <circle cx="70.96" cy="92.19" r="4.00"/> 
            <circle cx="110.04" cy="123.38" r="4.00"/> 
            <circle cx="48.02" cy="72.85" r="4.00"/> 
            <circle cx="65.72" cy="82.84" r="4.00"/> 
            <circle cx="88.68" cy="102.15" r="4.00"/> 
            <circle cx="104.84" cy="114.04" r="4.00"/> 
            <circle cx="60.52" cy="73.58" r="4.00"/> 
            <circle cx="83.54" cy="92.84" r="4.00"/> 
            <circle cx="55.36" cy="64.40" r="4.00"/> 
            <circle cx="78.44" cy="83.64" r="4.00"/> 
            <circle cx="122.80" cy="124.07" r="4.00"/> 
            <circle cx="101.58" cy="102.86" r="4.00"/> 
            <circle cx="73.35" cy="74.52" r="4.00"/> 
            <circle cx="68.29" cy="65.46" r="4.00"/> 
            <circle cx="96.57" cy="93.75" r="4.00"/> 
            <circle cx="117.79" cy="114.96" r="4.00"/> 
            <circle cx="63.23" cy="56.45" r="4.00"/> 
            <circle cx="91.58" cy="84.70" r="4.00"/> 
            <circle cx="112.79" cy="105.95" r="4.00"/> 
            <circle cx="86.58" cy="75.73" r="4.00"/> 
            <circle cx="81.59" cy="66.79" r="4.00"/> 
            <circle cx="76.60" cy="57.90" r="4.00"/> 
            <circle cx="71.61" cy="49.03" r="4.00"/> 
            <circle cx="110.16" cy="95.01" r="4.00"/> 
        </g>
        <g style="fill:#E1A5E1; stroke-width:0.00; stroke:#000000" id="3_Party-4"> 
            <title>Party 4</title>            <circle cx="105.23" cy="86.14" r="4.00"/> 
            <circle cx="100.29" cy="77.30" r="4.00"/> 
            <circle cx="131.47" cy="116.40" r="4.00"/> 
            <circle cx="95.35" cy="68.49" r="4.00"/> 
            <circle cx="90.39" cy="59.71" r="4.00"/> 
            <circle cx="126.54" cy="107.60" r="4.00"/> 
            <circle cx="85.43" cy="50.94" r="4.00"/> 
            <circle cx="80.47" cy="42.19" r="4.00"/> 
            <circle cx="121.60" cy="98.83" r="4.00"/> 
            <circle cx="119.53" cy="88.11" r="4.00"/> 
            <circle cx="114.58" cy="79.40" r="4.00"/> 
            <circle cx="109.63" cy="70.69" r="4.00"/> 
            <circle cx="104.67" cy="62.00" r="4.00"/> 
            <circle cx="99.70" cy="53.31" r="4.00"/> 
            <circle cx="94.72" cy="44.62" r="4.00"/> 
            <circle cx="89.75" cy="35.94" r="4.00"/> 
        </g>
        <g style="fill:#DCDCDC; stroke-width:0.00; stroke:#000000" id="4_Party-5"> 
            <title>Party 5</title>            <circle cx="131.16" cy="92.74" r="4.00"/> 
            <circle cx="136.16" cy="101.40" r="4.00"/> 
            <circle cx="141.16" cy="110.06" r="4.00"/> 
            <circle cx="99.42" cy="30.31" r="4.00"/> 
        </g>
        <g style="fill:#FFEB00; stroke-width:0.00; stroke:#000000" id="5_Party-6"> 
            <title>Party 6</title>            <circle cx="104.44" cy="38.97" r="4.00"/> 
            <circle cx="109.46" cy="47.62" r="4.00"/> 
            <circle cx="114.48" cy="56.28" r="4.00"/> 
            <circle cx="119.51" cy="64.93" r="4.00"/> 
            <circle cx="124.54" cy="73.59" r="4.00"/> 
            <circle cx="129.57" cy="82.24" r="4.00"/> 
            <circle cx="109.45" cy="25.33" r="4.00"/> 
            <circle cx="114.53" cy="34.01" r="4.00"/> 
            <circle cx="119.62" cy="42.69" r="4.00"/> 
            <circle cx="124.73" cy="51.37" r="4.00"/> 
            <circle cx="141.35" cy="87.77" r="4.00"/> 
            <circle cx="129.85" cy="60.06" r="4.00"/> 
            <circle cx="135.00" cy="68.76" r="4.00"/> 
            <circle cx="146.48" cy="96.47" r="4.00"/> 
            <circle cx="140.18" cy="77.46" r="4.00"/> 
            <circle cx="119.78" cy="21.03" r="4.00"/> 
            <circle cx="151.66" cy="105.19" r="4.00"/> 
            <circle cx="124.94" cy="29.77" r="4.00"/> 
            <circle cx="130.12" cy="38.53" r="4.00"/> 
            <circle cx="135.34" cy="47.31" r="4.00"/> 
            <circle cx="140.59" cy="56.12" r="4.00"/> 
            <circle cx="130.37" cy="17.41" r="4.00"/> 
        </g>
        <g style="fill:#00FFFF; stroke-width:0.00; stroke:#000000" id="6_Party-7"> 
            <title>Party 7</title>            <circle cx="145.88" cy="64.95" r="4.00"/> 
            <circle cx="152.03" cy="83.99" r="4.00"/> 
            <circle cx="135.62" cy="26.28" r="4.00"/> 
            <circle cx="151.24" cy="73.83" r="4.00"/> 
            <circle cx="140.91" cy="35.18" r="4.00"/> 
            <circle cx="157.35" cy="92.90" r="4.00"/> 
            <circle cx="146.24" cy="44.13" r="4.00"/> 
            <circle cx="141.17" cy="14.49" r="4.00"/> 
            <circle cx="151.63" cy="53.13" r="4.00"/> 
            <circle cx="162.76" cy="101.88" r="4.00"/> 
            <circle cx="146.52" cy="23.54" r="4.00"/> 
            <circle cx="157.08" cy="62.21" r="4.00"/> 
            <circle cx="151.92" cy="32.65" r="4.00"/> 
            <circle cx="163.07" cy="81.44" r="4.00"/> 
            <circle cx="152.14" cy="12.30" r="4.00"/> 
            <circle cx="157.37" cy="41.84" r="4.00"/> 
            <circle cx="162.61" cy="71.38" r="4.00"/> 
            <circle cx="157.59" cy="21.58" r="4.00"/> 
            <circle cx="162.89" cy="51.13" r="4.00"/> 
            <circle cx="168.58" cy="90.73" r="4.00"/> 
            <circle cx="163.09" cy="30.96" r="4.00"/> 
            <circle cx="163.24" cy="10.83" r="4.00"/> 
            <circle cx="168.49" cy="60.55" r="4.00"/> 
            <circle cx="168.65" cy="40.46" r="4.00"/> 
            <circle cx="174.21" cy="100.21" r="4.00"/> 
            <circle cx="168.77" cy="20.39" r="4.00"/> 
            <circle cx="174.33" cy="80.16" r="4.00"/> 
            <circle cx="174.18" cy="70.15" r="4.00"/> 
            <circle cx="174.28" cy="50.13" r="4.00"/> 
            <circle cx="174.35" cy="30.11" r="4.00"/> 
            <circle cx="174.40" cy="10.09" r="4.00"/> 
            <circle cx="180.00" cy="90.00" r="4.00"/> 
            <circle cx="180.00" cy="20.00" r="4.00"/> 
            <circle cx="180.00" cy="40.00" r="4.00"/> 
            <circle cx="180.00" cy="60.00" r="4.00"/> 
            <circle cx="185.60" cy="10.09" r="4.00"/> 
            <circle cx="185.65" cy="30.11" r="4.00"/> 
            <circle cx="185.72" cy="50.13" r="4.00"/> 
            <circle cx="185.82" cy="70.15" r="4.00"/> 
            <circle cx="185.67" cy="80.16" r="4.00"/> 
            <circle cx="191.23" cy="20.39" r="4.00"/> 
            <circle cx="185.79" cy="100.21" r="4.00"/> 
            <circle cx="191.35" cy="40.46" r="4.00"/> 
            <circle cx="191.51" cy="60.55" r="4.00"/> 
            <circle cx="196.76" cy="10.83" r="4.00"/> 
            <circle cx="196.91" cy="30.96" r="4.00"/> 
            <circle cx="191.42" cy="90.73" r="4.00"/> 
            <circle cx="197.11" cy="51.13" r="4.00"/> 
            <circle cx="202.41" cy="21.58" r="4.00"/> 
            <circle cx="197.39" cy="71.38" r="4.00"/> 
            <circle cx="202.63" cy="41.84" r="4.00"/> 
            <circle cx="207.86" cy="12.30" r="4.00"/> 
            <circle cx="196.93" cy="81.44" r="4.00"/> 
            <circle cx="208.08" cy="32.65" r="4.00"/> 
            <circle cx="202.92" cy="62.21" r="4.00"/> 
            <circle cx="213.48" cy="23.54" r="4.00"/> 
        </g>
        <g style="fill:#0000B9; stroke-width:0.00; stroke:#000000" id="7_Party-8"> 
            <title>Party 8</title>            <circle cx="197.24" cy="101.88" r="4.00"/> 
            <circle cx="208.37" cy="53.13" r="4.00"/> 
            <circle cx="218.83" cy="14.49" r="4.00"/> 
            <circle cx="213.76" cy="44.13" r="4.00"/> 
            <circle cx="202.65" cy="92.90" r="4.00"/> 
            <circle cx="219.09" cy="35.18" r="4.00"/> 
            <circle cx="208.76" cy="73.83" r="4.00"/> 
            <circle cx="224.38" cy="26.28" r="4.00"/> 
            <circle cx="207.97" cy="83.99" r="4.00"/> 
            <circle cx="214.12" cy="64.95" r="4.00"/> 
            <circle cx="229.63" cy="17.41" r="4.00"/> 
            <circle cx="219.41" cy="56.12" r="4.00"/> 
            <circle cx="224.66" cy="47.31" r="4.00"/> 
            <circle cx="229.88" cy="38.53" r="4.00"/> 
            <circle cx="235.06" cy="29.77" r="4.00"/> 
            <circle cx="208.34" cy="105.19" r="4.00"/> 
            <circle cx="240.22" cy="21.03" r="4.00"/> 
            <circle cx="219.82" cy="77.46" r="4.00"/> 
        </g>
        <g style="fill:#0066CC; stroke-width:0.00; stroke:#000000" id="8_Party-9"> 
            <title>Party 9</title>            <circle cx="213.52" cy="96.47" r="4.00"/> 
            <circle cx="225.00" cy="68.76" r="4.00"/> 
            <circle cx="230.15" cy="60.06" r="4.00"/> 
            <circle cx="218.65" cy="87.77" r="4.00"/> 
            <circle cx="235.27" cy="51.37" r="4.00"/> 
            <circle cx="240.38" cy="42.69" r="4.00"/> 
            <circle cx="245.47" cy="34.01" r="4.00"/> 
            <circle cx="250.55" cy="25.33" r="4.00"/> 
            <circle cx="230.43" cy="82.24" r="4.00"/> 
            <circle cx="235.46" cy="73.59" r="4.00"/> 
            <circle cx="240.49" cy="64.93" r="4.00"/> 
            <circle cx="245.52" cy="56.28" r="4.00"/> 
            <circle cx="250.54" cy="47.62" r="4.00"/> 
            <circle cx="255.56" cy="38.97" r="4.00"/> 
            <circle cx="260.58" cy="30.31" r="4.00"/> 
            <circle cx="218.84" cy="110.06" r="4.00"/> 
            <circle cx="223.84" cy="101.40" r="4.00"/> 
            <circle cx="228.84" cy="92.74" r="4.00"/> 
            <circle cx="270.25" cy="35.94" r="4.00"/> 
            <circle cx="265.28" cy="44.62" r="4.00"/> 
            <circle cx="260.30" cy="53.31" r="4.00"/> 
            <circle cx="255.33" cy="62.00" r="4.00"/> 
            <circle cx="250.37" cy="70.69" r="4.00"/> 
            <circle cx="245.42" cy="79.40" r="4.00"/> 
            <circle cx="240.47" cy="88.11" r="4.00"/> 
            <circle cx="238.40" cy="98.83" r="4.00"/> 
            <circle cx="279.53" cy="42.19" r="4.00"/> 
            <circle cx="274.57" cy="50.94" r="4.00"/> 
            <circle cx="233.46" cy="107.60" r="4.00"/> 
            <circle cx="269.61" cy="59.71" r="4.00"/> 
            <circle cx="264.65" cy="68.49" r="4.00"/> 
            <circle cx="228.53" cy="116.40" r="4.00"/> 
            <circle cx="259.71" cy="77.30" r="4.00"/> 
            <circle cx="254.77" cy="86.14" r="4.00"/> 
            <circle cx="249.84" cy="95.01" r="4.00"/> 
            <circle cx="288.39" cy="49.03" r="4.00"/> 
            <circle cx="283.40" cy="57.90" r="4.00"/> 
            <circle cx="278.41" cy="66.79" r="4.00"/> 
            <circle cx="273.42" cy="75.73" r="4.00"/> 
            <circle cx="247.21" cy="105.95" r="4.00"/> 
            <circle cx="268.42" cy="84.70" r="4.00"/> 
            <circle cx="296.77" cy="56.45" r="4.00"/> 
            <circle cx="242.21" cy="114.96" r="4.00"/> 
            <circle cx="263.43" cy="93.75" r="4.00"/> 
            <circle cx="291.71" cy="65.46" r="4.00"/> 
            <circle cx="286.65" cy="74.52" r="4.00"/> 
            <circle cx="258.42" cy="102.86" r="4.00"/> 
            <circle cx="237.20" cy="124.07" r="4.00"/> 
            <circle cx="281.56" cy="83.64" r="4.00"/> 
            <circle cx="304.64" cy="64.40" r="4.00"/> 
            <circle cx="276.46" cy="92.84" r="4.00"/> 
            <circle cx="299.48" cy="73.58" r="4.00"/> 
            <circle cx="255.16" cy="114.04" r="4.00"/> 
            <circle cx="271.32" cy="102.15" r="4.00"/> 
            <circle cx="294.28" cy="82.84" r="4.00"/> 
            <circle cx="311.98" cy="72.85" r="4.00"/> 
            <circle cx="249.96" cy="123.38" r="4.00"/> 
            <circle cx="289.04" cy="92.19" r="4.00"/> 
            <circle cx="266.13" cy="111.58" r="4.00"/> 
            <circle cx="306.66" cy="82.23" r="4.00"/> 
            <circle cx="283.74" cy="101.66" r="4.00"/> 
            <circle cx="244.67" cy="132.91" r="4.00"/> 
            <circle cx="301.27" cy="91.72" r="4.00"/> 
            <circle cx="318.74" cy="81.76" r="4.00"/> 
            <circle cx="278.37" cy="111.27" r="4.00"/> 
            <circle cx="262.14" cy="122.96" r="4.00"/> 
            <circle cx="295.80" cy="101.33" r="4.00"/> 
            <circle cx="313.21" cy="91.37" r="4.00"/> 
            <circle cx="272.88" cy="121.06" r="4.00"/> 
            <circle cx="290.23" cy="111.08" r="4.00"/> 
            <circle cx="307.57" cy="101.10" r="4.00"/> 
            <circle cx="256.58" cy="132.71" r="4.00"/> 
            <circle cx="324.91" cy="91.11" r="4.00"/> 
            <circle cx="319.10" cy="100.94" r="4.00"/> 
            <circle cx="301.80" cy="110.97" r="4.00"/> 
            <circle cx="284.51" cy="121.02" r="4.00"/> 
            <circle cx="268.07" cy="132.62" r="4.00"/> 
            <circle cx="250.79" cy="142.74" r="4.00"/> 
            <circle cx="330.44" cy="100.83" r="4.00"/> 
            <circle cx="313.15" cy="110.92" r="4.00"/> 
            <circle cx="295.86" cy="121.04" r="4.00"/> 
            <circle cx="278.58" cy="131.20" r="4.00"/> 
            <circle cx="324.31" cy="110.90" r="4.00"/> 
            <circle cx="307.00" cy="121.08" r="4.00"/> 
            <circle cx="261.96" cy="142.81" r="4.00"/> 
            <circle cx="335.32" cy="110.90" r="4.00"/> 
            <circle cx="289.68" cy="131.32" r="4.00"/> 
            <circle cx="317.97" cy="121.13" r="4.00"/> 
            <circle cx="300.59" cy="131.45" r="4.00"/> 
            <circle cx="272.86" cy="142.89" r="4.00"/> 
            <circle cx="328.80" cy="121.20" r="4.00"/> 
            <circle cx="283.19" cy="141.89" r="4.00"/> 
            <circle cx="311.36" cy="131.57" r="4.00"/> 
            <circle cx="339.53" cy="121.27" r="4.00"/> 
            <circle cx="255.43" cy="153.35" r="4.00"/> 
            <circle cx="322.01" cy="131.68" r="4.00"/> 
            <circle cx="293.85" cy="142.07" r="4.00"/> 
            <circle cx="332.56" cy="131.79" r="4.00"/> 
            <circle cx="266.01" cy="153.50" r="4.00"/> 
            <circle cx="304.39" cy="142.23" r="4.00"/> 
            <circle cx="343.05" cy="131.89" r="4.00"/> 
            <circle cx="314.85" cy="142.38" r="4.00"/> 
            <circle cx="276.46" cy="153.64" r="4.00"/> 
            <circle cx="325.24" cy="142.51" r="4.00"/> 
            <circle cx="286.63" cy="153.00" r="4.00"/> 
            <circle cx="335.57" cy="142.62" r="4.00"/> 
            <circle cx="296.96" cy="153.17" r="4.00"/> 
            <circle cx="345.86" cy="142.73" r="4.00"/> 
            <circle cx="307.23" cy="153.31" r="4.00"/> 
            <circle cx="258.49" cy="164.51" r="4.00"/> 
            <circle cx="317.46" cy="153.44" r="4.00"/> 
            <circle cx="327.65" cy="153.54" r="4.00"/> 
            <circle cx="268.68" cy="164.63" r="4.00"/> 
            <circle cx="337.81" cy="153.64" r="4.00"/> 
            <circle cx="347.96" cy="153.72" r="4.00"/> 
            <circle cx="278.83" cy="164.72" r="4.00"/> 
            <circle cx="288.89" cy="164.41" r="4.00"/> 
            <circle cx="299.00" cy="164.51" r="4.00"/> 
            <circle cx="309.08" cy="164.60" r="4.00"/> 
            <circle cx="319.16" cy="164.67" r="4.00"/> 
            <circle cx="329.22" cy="164.73" r="4.00"/> 
            <circle cx="339.27" cy="164.78" r="4.00"/> 
            <circle cx="349.32" cy="164.83" r="4.00"/> 
            <circle cx="259.90" cy="176.00" r="4.00"/> 
            <circle cx="269.91" cy="176.00" r="4.00"/> 
            <circle cx="279.92" cy="176.00" r="4.00"/> 
            <circle cx="289.93" cy="176.00" r="4.00"/> 
            <circle cx="299.93" cy="176.00" r="4.00"/> 
            <circle cx="309.94" cy="176.00" r="4.00"/> 
            <circle cx="319.94" cy="176.00" r="4.00"/> 
            <circle cx="329.95" cy="176.00" r="4.00"/> 
            <circle cx="339.95" cy="176.00" r="4.00"/> 
            <circle cx="349.95" cy="176.00" r="4.00"/> 
        </g>
    </g>
</svg>